<svg id="Capa_1" enable-background="new 0 0 512 512" height="512" viewBox="0 0 512 512" width="512" xmlns="http://www.w3.org/2000/svg"><g><g><g><path clip-rule="evenodd" d="m103.99 7.984h-8c-8.837 0-16.001 7.163-16.001 16.001v16.001h40.003v-16.001c-.001-8.837-7.165-16.001-16.002-16.001z" fill="#fff" fill-rule="evenodd"/></g><g><path clip-rule="evenodd" d="m416.01 7.984h-8c-8.837 0-16.001 7.163-16.001 16.001v16.001h40.003v-16.001c-.001-8.837-7.165-16.001-16.002-16.001z" fill="#fff" fill-rule="evenodd"/></g></g><g><path clip-rule="evenodd" d="m432.011 39.986v-16.001c0-8.837-7.164-16.001-16.001-16.001h-8c-8.837 0-16.001 7.164-16.001 16.001v16.001" fill="#fff" fill-rule="evenodd"/></g><g><g><path d="m127.976 39.986h-15.969v-16.001c0-4.421-3.596-8.017-8.016-8.017h-8c-4.42 0-8.017 3.596-8.017 8.017v16.001h-15.969v-16.001c0-13.225 10.76-23.985 23.985-23.985h8c13.225 0 23.985 10.76 23.985 23.985v16.001z" fill="#8cebaf"/></g><g><path d="m439.995 39.986h-15.969v-16.001c0-4.421-3.596-8.017-8.017-8.017h-8c-4.42 0-8.017 3.596-8.017 8.017v16.001h-15.969v-16.001c.001-13.225 10.762-23.985 23.987-23.985h8c13.225 0 23.985 10.76 23.985 23.985z" fill="#8cebaf"/></g></g><g><path d="m439.995 39.986h-15.969v-16.001c0-4.421-3.596-8.017-8.017-8.017h-8c-4.42 0-8.017 3.596-8.017 8.017v16.001h-15.969v-16.001c.001-13.225 10.762-23.985 23.987-23.985h8c13.225 0 23.985 10.76 23.985 23.985z" fill="#8cebaf"/></g><g><path clip-rule="evenodd" d="m448.012 39.986h-384.024c-8.837 0-16.001 7.164-16.001 16.001v432.027c0 8.837 7.164 16.001 16.001 16.001h384.024c8.837 0 16.001-7.164 16.001-16.001v-432.027c0-8.837-7.164-16.001-16.001-16.001z" fill="#dcf8e1" fill-rule="evenodd"/></g><g><path clip-rule="evenodd" d="m448.012 39.986h-384.024c-8.837 0-16.001 7.164-16.001 16.001v56.003h416.026v-56.003c0-8.837-7.164-16.001-16.001-16.001z" fill="#8cebaf" fill-rule="evenodd"/></g><g><path clip-rule="evenodd" d="m87.989 39.986c0 13.256 10.746 24.001 24.001 24.001h312.02c8.837 0 16.001 7.164 16.001 16.001v360.023c0 13.256 10.746 24.001 24.001 24.001v-408.025c0-8.837-7.164-16.001-16.001-16.001z" fill="#fff" fill-rule="evenodd"/></g><path d="m448.012 32.002h-384.024c-13.225 0-23.985 10.76-23.985 23.985v432.027c0 13.226 10.76 23.985 23.985 23.985h384.023c13.225 0 23.985-10.76 23.985-23.985v-432.027c.001-13.225-10.759-23.985-23.984-23.985zm-384.024 15.969h384.023c4.42 0 8.017 3.596 8.017 8.017v48.019h-400.056v-48.02c0-4.42 3.596-8.016 8.016-8.016zm384.024 448.06h-384.024c-4.42 0-8.017-3.596-8.017-8.017v-368.039h400.057v368.039c0 4.421-3.596 8.017-8.016 8.017z" fill="#00bebe"/><g><path d="m328.005 512h-264.017c-13.225 0-23.985-10.76-23.985-23.985v-248.016c0-4.41 3.575-7.984 7.984-7.984s7.984 3.575 7.984 7.984v248.016c0 4.421 3.597 8.017 8.017 8.017h264.017c4.409 0 7.984 3.575 7.984 7.984s-3.575 7.984-7.984 7.984z" fill="#283246"/></g><g><path d="m384.008 207.981h-256.016c-4.409 0-7.984-3.575-7.984-7.984 0-4.41 3.575-7.984 7.984-7.984h256.016c4.409 0 7.984 3.574 7.984 7.984 0 4.409-3.575 7.984-7.984 7.984z" fill="#00bebe"/></g><g><path d="m384.008 279.985h-256.016c-4.409 0-7.984-3.575-7.984-7.984 0-4.41 3.575-7.984 7.984-7.984h256.016c4.409 0 7.984 3.574 7.984 7.984s-3.575 7.984-7.984 7.984z" fill="#00bebe"/></g><g><path d="m384.008 351.99h-256.016c-4.409 0-7.984-3.575-7.984-7.984 0-4.41 3.575-7.984 7.984-7.984h256.016c4.409 0 7.984 3.574 7.984 7.984 0 4.409-3.575 7.984-7.984 7.984z" fill="#00bebe"/></g><g><path d="m384.008 423.994h-256.016c-4.409 0-7.984-3.575-7.984-7.984 0-4.41 3.575-7.984 7.984-7.984h256.016c4.409 0 7.984 3.575 7.984 7.984 0 4.41-3.575 7.984-7.984 7.984z" fill="#00bebe"/></g><g><path d="m175.995 279.985h-48.003c-4.409 0-7.984-3.575-7.984-7.984 0-4.41 3.575-7.984 7.984-7.984h48.003c4.409 0 7.984 3.574 7.984 7.984.001 4.41-3.575 7.984-7.984 7.984z" fill="#283246"/></g><g><path d="m239.999 351.99h-112.007c-4.409 0-7.984-3.575-7.984-7.984 0-4.41 3.575-7.984 7.984-7.984h112.007c4.409 0 7.984 3.574 7.984 7.984 0 4.409-3.575 7.984-7.984 7.984z" fill="#283246"/></g><g><path d="m320.004 423.994h-192.012c-4.409 0-7.984-3.575-7.984-7.984 0-4.41 3.575-7.984 7.984-7.984h192.012c4.409 0 7.984 3.575 7.984 7.984 0 4.41-3.575 7.984-7.984 7.984z" fill="#283246"/></g></g></svg>